<svg xmlns="http://www.w3.org/2000/svg" width="1200" height="630" viewBox="0 0 1200 630">
  <defs>
    <linearGradient id="bg2" x1="0" x2="1" y1="0" y2="1">
      <stop offset="0%" stop-color="#0d3b72"/>
      <stop offset="100%" stop-color="#1d87ff"/>
    </linearGradient>
  </defs>
  <rect width="1200" height="630" fill="url(#bg2)"/>
  <path d="M90 170H1110V520C1110 540 1094 555 1074 555H126C106 555 90 540 90 520V170Z" fill="rgba(255,255,255,0.14)" stroke="rgba(255,255,255,0.3)" stroke-width="2"/>
  <rect x="140" y="220" width="420" height="280" rx="30" fill="#fff" opacity="0.95"/>
  <rect x="650" y="220" width="320" height="280" rx="30" fill="#1a62ff" opacity="0.96"/>
  <circle cx="775" cy="315" r="75" fill="#fff"/>
  <circle cx="775" cy="315" r="48" fill="#1d4cff"/>
  <path d="M740 300C740 280 820 280 820 300C820 320 740 320 740 300Z" fill="#fff"/>
  <g fill="#fff" font-family="Inter, sans-serif">
    <text x="160" y="340" font-size="52" font-weight="700">AI Chatbot</text>
    <text x="160" y="410" font-size="24" fill="#dde8ff">Instant answers, lead capture, and supportive UX.</text>
  </g>
  <g fill="#fff">
    <rect x="178" y="257" width="300" height="22" rx="11" fill="#2b68ff"/>
    <rect x="178" y="298" width="250" height="18" rx="9" fill="#cfe4ff"/>
    <rect x="178" y="332" width="210" height="18" rx="9" fill="#cfe4ff"/>
    <rect x="178" y="366" width="160" height="18" rx="9" fill="#cfe4ff"/>
  </g>
</svg>